<svg width="47" height="18" viewBox="0 0 47 18" fill="none" xmlns="http://www.w3.org/2000/svg">
<path d="M0.801881 13.2921C0.801882 11.7421 2.10815 10.689 2.59564 10.4784C6.45296 8.80065 8.63482 11.4108 10.0807 13.1383C10.3789 13.4956 10.6605 13.8317 10.9185 14.0896C11.742 14.9084 13.4506 16.6146 15.9424 16.8843C18.0841 17.1162 19.8826 16.527 21.0066 15.2231C22.4715 13.524 22.3673 11.2759 21.8325 9.86555C21.151 8.06707 19.3359 6.28042 17.1896 6.34195C16.0466 6.37508 14.1558 6.99271 13.628 8.55928C13.1926 9.84661 13.912 11.0038 13.9428 11.0511C14.5604 12.0285 15.7105 12.5704 16.9458 12.4639C17.2392 12.4378 17.4972 12.6555 17.5208 12.949C17.5398 13.2424 17.3292 13.498 17.0357 13.524C15.4029 13.666 13.8718 12.9348 13.0412 11.6214C12.937 11.4558 12.033 9.95073 12.6176 8.22088C13.2754 6.27096 15.4313 5.33149 17.1588 5.2818C19.9275 5.20371 22.0384 7.4092 22.8288 9.49165C23.6689 11.709 23.2713 14.2316 21.8136 15.9212C20.4529 17.4972 18.3278 18.2142 15.8288 17.9445C12.9678 17.6345 11.006 15.6798 10.1707 14.8468C9.87721 14.5534 9.58139 14.2008 9.26665 13.8246C7.80655 12.0781 6.15006 10.0974 3.02161 11.4581C2.87253 11.522 1.83602 12.2367 1.86678 13.3489C1.89045 14.1606 2.49625 15.1119 3.42864 15.2326C4.1504 15.3249 4.90057 14.9155 5.29103 14.2126C5.43302 13.9547 5.75721 13.8624 6.01515 14.0068C6.27309 14.1488 6.36538 14.473 6.22103 14.7309C5.61995 15.81 4.44383 16.4371 3.29373 16.2904C1.78394 16.0963 0.842084 14.6599 0.804222 13.3844C0.801855 13.3489 0.801881 13.3205 0.801881 13.2921Z" fill="#5F0409"/>
<path d="M23.7073 11.8651C23.7073 11.0677 23.8493 10.2583 24.1427 9.48689C24.9331 7.40444 27.044 5.19658 29.8104 5.27704C31.5355 5.32673 33.6937 6.26856 34.3516 8.21612C34.9361 9.94597 34.0345 11.451 33.928 11.6167C33.0974 12.9324 31.5663 13.6613 29.9335 13.5193C29.64 13.4932 29.4247 13.2424 29.4483 12.9442C29.4743 12.6508 29.7323 12.4354 30.0234 12.4591C31.2587 12.5656 32.4087 12.0237 33.0264 11.0464C33.0572 10.9967 33.7742 9.84185 33.3411 8.55452C32.8134 6.98795 30.9203 6.37032 29.7773 6.33719C27.6285 6.27566 25.8158 8.06467 25.1343 9.86078C24.5995 11.2712 24.4953 13.5193 25.9602 15.2184C27.0842 16.5222 28.8827 17.1115 31.0244 16.8796C33.5139 16.6098 35.2248 14.9036 36.046 14.0848C36.3063 13.8269 36.5855 13.4909 36.8837 13.1335C38.3273 11.4061 40.5115 8.7959 44.3688 10.4737C44.8634 10.689 46.1933 11.7871 46.1626 13.3702C46.1247 14.6457 45.1829 16.0821 43.6731 16.2761C42.523 16.4252 41.3468 15.7981 40.7458 14.7167C40.6038 14.4587 40.6961 14.1369 40.9516 13.9926C41.2072 13.8506 41.5314 13.9429 41.6758 14.1984C42.0662 14.9013 42.814 15.3106 43.5382 15.2184C44.4706 15.0977 45.0764 14.1464 45.1 13.3347C45.1332 12.2201 44.0943 11.5078 43.9476 11.4439C40.8191 10.0832 39.1626 12.0639 37.7025 13.8103C37.3878 14.1866 37.092 14.5392 36.7985 14.8326C35.9608 15.668 34.0014 17.6203 31.1403 17.9303C28.6414 18.2024 26.5163 17.483 25.1556 15.907C24.2066 14.8161 23.7073 13.3607 23.7073 11.8651Z" fill="#5F0409"/>
<path d="M20.4985 3.02649C20.4985 2.05389 21.0901 1.0245 22.0367 0.395032C22.4603 0.113428 22.9525 -0.0190845 23.4968 0.00221322C24.0411 -0.0190845 24.5333 0.113428 24.9569 0.395032C25.9887 1.08366 26.5969 2.24557 26.4785 3.29152C26.4052 3.92336 26.1117 4.30435 25.771 4.74451C25.603 4.96222 25.4113 5.21069 25.2007 5.54199C24.8386 6.11229 24.4836 6.89321 24.247 7.40909C23.9606 8.03383 23.9015 8.16398 23.6293 8.23497C23.5844 8.2468 23.5394 8.25154 23.4945 8.25154C23.4495 8.25154 23.4045 8.2468 23.3596 8.23497C23.0851 8.16634 23.0259 8.03619 22.7419 7.40909C22.5053 6.89321 22.1503 6.11229 21.7882 5.54199C21.5776 5.21069 21.3859 4.96458 21.2179 4.74451C20.8772 4.30435 20.5837 3.92336 20.5104 3.29152C20.5033 3.20397 20.4985 3.11641 20.4985 3.02649ZM25.4278 3.02175C25.4278 2.40648 25.009 1.70839 24.3629 1.28007C24.1216 1.11915 23.847 1.05053 23.5181 1.06473C23.5015 1.06473 23.485 1.06473 23.4684 1.06473C23.1419 1.04817 22.865 1.11915 22.6236 1.28007C21.9279 1.74389 21.4948 2.52007 21.5682 3.17083C21.606 3.49503 21.7385 3.67725 22.0604 4.09611C22.2331 4.32092 22.4509 4.60015 22.6851 4.97404C22.9833 5.44259 23.2649 6.01527 23.4921 6.50275C23.7193 6.01527 24.0032 5.44259 24.299 4.97404C24.5357 4.60251 24.751 4.32329 24.9238 4.09848C25.2456 3.67962 25.3781 3.4974 25.416 3.1732C25.4255 3.12114 25.4278 3.07144 25.4278 3.02175ZM24.6587 0.837551L24.6587 0.842288L24.6587 0.837551Z" fill="#5F0409"/>
</svg>
