<svg width="46" height="18" viewBox="0 0 46 18" fill="none" xmlns="http://www.w3.org/2000/svg">
<path d="M0.639772 13.2921C0.639772 11.7421 1.94604 10.689 2.43353 10.4784C6.29085 8.80065 8.47272 11.4108 9.91862 13.1383C10.2168 13.4956 10.4984 13.8317 10.7563 14.0896C11.5799 14.9084 13.2884 16.6146 15.7803 16.8843C17.922 17.1162 19.7205 16.527 20.8445 15.2231C22.3093 13.524 22.2052 11.2759 21.6704 9.86555C20.9889 8.06707 19.1738 6.28042 17.0274 6.34195C15.8844 6.37508 13.9936 6.99271 13.4659 8.55928C13.0305 9.84661 13.7499 11.0038 13.7807 11.0511C14.3983 12.0285 15.5484 12.5704 16.7837 12.4639C17.0771 12.4378 17.3351 12.6555 17.3587 12.949C17.3777 13.2424 17.1671 13.498 16.8736 13.524C15.2408 13.666 13.7097 12.9348 12.879 11.6214C12.7749 11.4558 11.8709 9.95073 12.4554 8.22088C13.1133 6.27096 15.2692 5.33149 16.9967 5.2818C19.7654 5.20371 21.8763 7.4092 22.6667 9.49165C23.5068 11.709 23.1092 14.2316 21.6515 15.9212C20.2908 17.4972 18.1657 18.2142 15.6667 17.9445C12.8057 17.6345 10.8439 15.6798 10.0085 14.8468C9.7151 14.5534 9.41928 14.2008 9.10454 13.8246C7.64444 12.0781 5.98795 10.0974 2.8595 11.4581C2.71042 11.522 1.67391 12.2367 1.70468 13.3489C1.72834 14.1606 2.33414 15.1119 3.26653 15.2326C3.98829 15.3249 4.73846 14.9155 5.12892 14.2126C5.27091 13.9547 5.5951 13.8624 5.85304 14.0068C6.11098 14.1488 6.20328 14.473 6.05892 14.7309C5.45784 15.81 4.28172 16.4371 3.13162 16.2904C1.62183 16.0963 0.679975 14.6599 0.642112 13.3844C0.639745 13.3489 0.639772 13.3205 0.639772 13.2921Z" fill="#FFF1E3"/>
<path d="M23.5442 11.8651C23.5442 11.0677 23.6862 10.2583 23.9797 9.48689C24.77 7.40444 26.8809 5.19658 29.6473 5.27704C31.3724 5.32673 33.5307 6.26856 34.1885 8.21612C34.773 9.94597 33.8714 11.451 33.7649 11.6167C32.9343 12.9324 31.4032 13.6613 29.7704 13.5193C29.4769 13.4932 29.2616 13.2424 29.2852 12.9442C29.3113 12.6508 29.5692 12.4354 29.8603 12.4591C31.0956 12.5656 32.2457 12.0237 32.8633 11.0464C32.8941 10.9967 33.6111 9.84185 33.178 8.55452C32.6503 6.98795 30.7572 6.37032 29.6142 6.33719C27.4654 6.27566 25.6527 8.06467 24.9712 9.86078C24.4364 11.2712 24.3323 13.5193 25.7971 15.2184C26.9211 16.5222 28.7197 17.1115 30.8613 16.8796C33.3508 16.6098 35.0617 14.9036 35.8829 14.0848C36.1432 13.8269 36.4225 13.4909 36.7206 13.1335C38.1642 11.4061 40.3484 8.7959 44.2057 10.4737C44.7003 10.689 46.0302 11.7871 45.9995 13.3702C45.9616 14.6457 45.0198 16.0821 43.51 16.2761C42.3599 16.4252 41.1837 15.7981 40.5827 14.7167C40.4407 14.4587 40.533 14.1369 40.7886 13.9926C41.0441 13.8506 41.3683 13.9429 41.5127 14.1984C41.9032 14.9013 42.651 15.3106 43.3751 15.2184C44.3075 15.0977 44.9133 14.1464 44.9369 13.3347C44.9701 12.2201 43.9312 11.5078 43.7845 11.4439C40.656 10.0832 38.9995 12.0639 37.5394 13.8103C37.2247 14.1866 36.9289 14.5392 36.6354 14.8326C35.7977 15.668 33.8383 17.6203 30.9773 17.9303C28.4783 18.2024 26.3532 17.483 24.9925 15.907C24.0436 14.8161 23.5442 13.3607 23.5442 11.8651Z" fill="#FFF1E3"/>
<path d="M20.3354 3.02649C20.3354 2.05389 20.927 1.0245 21.8736 0.395032C22.2972 0.113428 22.7895 -0.0190845 23.3337 0.00221322C23.878 -0.0190845 24.3702 0.113428 24.7938 0.395032C25.8256 1.08366 26.4338 2.24557 26.3155 3.29152C26.2421 3.92336 25.9487 4.30435 25.6079 4.74451C25.4399 4.96222 25.2482 5.21069 25.0376 5.54199C24.6755 6.11229 24.3205 6.89321 24.0839 7.40909C23.7976 8.03383 23.7384 8.16398 23.4663 8.23497C23.4213 8.2468 23.3763 8.25154 23.3314 8.25154C23.2864 8.25154 23.2414 8.2468 23.1965 8.23497C22.922 8.16634 22.8628 8.03619 22.5788 7.40909C22.3422 6.89321 21.9872 6.11229 21.6251 5.54199C21.4145 5.21069 21.2229 4.96458 21.0548 4.74451C20.7141 4.30435 20.4206 3.92336 20.3473 3.29152C20.3402 3.20397 20.3354 3.11641 20.3354 3.02649ZM25.2648 3.02175C25.2648 2.40648 24.8459 1.70839 24.1998 1.28007C23.9585 1.11915 23.684 1.05053 23.355 1.06473C23.3385 1.06473 23.3219 1.06473 23.3053 1.06473C22.9788 1.04817 22.7019 1.11915 22.4605 1.28007C21.7648 1.74389 21.3317 2.52007 21.4051 3.17083C21.4429 3.49503 21.5755 3.67725 21.8973 4.09611C22.07 4.32092 22.2878 4.60015 22.522 4.97404C22.8202 5.44259 23.1018 6.01527 23.329 6.50275C23.5562 6.01527 23.8401 5.44259 24.136 4.97404C24.3726 4.60251 24.5879 4.32329 24.7607 4.09848C25.0825 3.67962 25.2151 3.4974 25.2529 3.1732C25.2624 3.12114 25.2648 3.07144 25.2648 3.02175ZM24.4957 0.837551L24.4957 0.842288L24.4957 0.837551Z" fill="#FFF1E3"/>
</svg>
