<svg width="19" height="19" viewBox="0 0 19 19" fill="none" xmlns="http://www.w3.org/2000/svg">
<path fill-rule="evenodd" clip-rule="evenodd" d="M0.654297 9.54639C0.654297 5.95125 0.654297 4.15368 1.51099 2.85894C1.89354 2.28078 2.38869 1.78563 2.96685 1.40308C4.26159 0.546387 6.05916 0.546387 9.6543 0.546387C13.2494 0.546387 15.047 0.546387 16.3417 1.40308C16.9199 1.78563 17.4151 2.28078 17.7976 2.85894C18.6543 4.15368 18.6543 5.95125 18.6543 9.54639C18.6543 13.1415 18.6543 14.9391 17.7976 16.2338C17.4151 16.812 16.9199 17.3071 16.3417 17.6897C15.047 18.5464 13.2494 18.5464 9.6543 18.5464C6.05916 18.5464 4.26159 18.5464 2.96685 17.6897C2.38869 17.3071 1.89354 16.812 1.51099 16.2338C0.654297 14.9391 0.654297 13.1415 0.654297 9.54639ZM14.3149 9.54667C14.3149 12.12 12.2288 14.2061 9.65548 14.2061C7.08216 14.2061 4.99607 12.12 4.99607 9.54667C4.99607 6.97335 7.08216 4.88727 9.65548 4.88727C12.2288 4.88727 14.3149 6.97335 14.3149 9.54667ZM9.65548 12.6297C11.3582 12.6297 12.7385 11.2494 12.7385 9.54667C12.7385 7.84398 11.3582 6.46367 9.65548 6.46367C7.95278 6.46367 6.57247 7.84398 6.57247 9.54667C6.57247 11.2494 7.95278 12.6297 9.65548 12.6297ZM14.4989 5.748C15.1036 5.748 15.5937 5.25783 15.5937 4.65317C15.5937 4.04852 15.1036 3.55835 14.4989 3.55835C13.8943 3.55835 13.4041 4.04852 13.4041 4.65317C13.4041 5.25783 13.8943 5.748 14.4989 5.748Z" fill="white"/>
</svg>
