<svg width="19" height="15" viewBox="0 0 19 15" fill="none" xmlns="http://www.w3.org/2000/svg">
<path d="M12.6813 0.247626V0.244385H13.5254L13.8337 0.305977C14.0393 0.345963 14.226 0.398365 14.3937 0.463198C14.5614 0.528032 14.7237 0.603677 14.8806 0.690116C15.0375 0.776555 15.1798 0.864632 15.3075 0.954313C15.4341 1.04292 15.5477 1.13693 15.6484 1.23634C15.7479 1.33683 15.9032 1.36276 16.1142 1.31414C16.3252 1.26551 16.5524 1.19797 16.7959 1.11153C17.0393 1.0251 17.2801 0.927845 17.5181 0.819783C17.7562 0.711722 17.9012 0.643112 17.9531 0.613936C18.004 0.583692 18.031 0.567483 18.0343 0.565311L18.0375 0.560449L18.0538 0.552345L18.07 0.54424L18.0862 0.536136L18.1024 0.528032L18.1057 0.523169L18.1106 0.519928L18.1154 0.516686L18.1187 0.511824L18.1349 0.506961L18.1511 0.503719L18.1479 0.528032L18.143 0.552345L18.1349 0.576657L18.1268 0.60097L18.1187 0.617178L18.1106 0.633387L18.1024 0.657699C18.097 0.673908 18.0916 0.695513 18.0862 0.722533C18.0808 0.749552 18.0294 0.857597 17.932 1.0467C17.8346 1.2358 17.7129 1.4276 17.5668 1.6221C17.4208 1.8166 17.2898 1.96355 17.1741 2.06297C17.0572 2.16346 16.9798 2.23369 16.9419 2.27368C16.9041 2.31473 16.8581 2.35255 16.804 2.38714L16.7228 2.44062L16.7066 2.44873L16.6904 2.45683L16.6871 2.4617L16.6822 2.46494L16.6774 2.46818L16.6741 2.47304L16.6579 2.48115L16.6417 2.48925L16.6384 2.49411L16.6336 2.49735L16.6287 2.5006L16.6254 2.50546L16.6222 2.51032L16.6173 2.51356L16.6125 2.5168L16.6092 2.52167H16.6904L17.1448 2.42442C17.4478 2.35958 17.7373 2.28125 18.0132 2.18939L18.4514 2.04352L18.5001 2.02731L18.5245 2.01921L18.5407 2.0111L18.5569 2.003L18.5731 1.99489L18.5894 1.98679L18.6218 1.98193L18.6543 1.97868V2.0111L18.6462 2.01434L18.6381 2.01921L18.6348 2.02407L18.6299 2.02731L18.6251 2.03055L18.6218 2.03541L18.6186 2.04028L18.6137 2.04352L18.6088 2.04676L18.6056 2.05162L18.6024 2.05648L18.5975 2.05973L18.5894 2.07593L18.5813 2.09214L18.5764 2.09538C18.5742 2.09863 18.5055 2.19046 18.3703 2.37093C18.235 2.55246 18.162 2.6443 18.1511 2.64647C18.1403 2.64971 18.1252 2.66592 18.1057 2.6951C18.0873 2.72534 17.9726 2.84583 17.7616 3.05654C17.5506 3.26725 17.3439 3.45472 17.1416 3.61898C16.9382 3.7843 16.8354 3.98744 16.8332 4.22841C16.83 4.4683 16.8175 4.73953 16.7959 5.04207C16.7742 5.34464 16.7337 5.67149 16.6741 6.02268C16.6146 6.37387 16.5227 6.77098 16.3982 7.214C16.2738 7.65702 16.1223 8.08925 15.9437 8.51067C15.7652 8.93209 15.5786 9.31028 15.3838 9.64526C15.189 9.98024 15.0105 10.2639 14.8482 10.4962C14.6859 10.7285 14.5209 10.9473 14.3531 11.1526C14.1854 11.358 13.9733 11.5892 13.7169 11.8464C13.4594 12.1025 13.3187 12.2429 13.2949 12.2678C13.27 12.2916 13.164 12.3802 12.9767 12.5336C12.7906 12.6881 12.5905 12.8426 12.3762 12.9972C12.163 13.1506 11.9672 13.2787 11.7887 13.3813C11.6101 13.4839 11.3948 13.6012 11.1427 13.733C10.8916 13.8659 10.62 13.9891 10.3279 14.1026C10.0357 14.216 9.72734 14.3214 9.40272 14.4186C9.0781 14.5159 8.76431 14.5915 8.46133 14.6456C8.15837 14.6996 7.81481 14.7455 7.43067 14.7833L6.85448 14.8401V14.8482H5.79947V14.8401L5.66151 14.832C5.56955 14.8266 5.4938 14.8211 5.43428 14.8157C5.37478 14.8103 5.15024 14.7806 4.7607 14.7266C4.37116 14.6726 4.06548 14.6185 3.84366 14.5645C3.62185 14.5105 3.29181 14.4078 2.85358 14.2566C2.41534 14.1053 2.04041 13.9524 1.72878 13.7979C1.41823 13.6444 1.22346 13.5472 1.14447 13.5061C1.06656 13.4661 0.978914 13.4164 0.881529 13.357L0.735451 13.2678L0.732221 13.263L0.727336 13.2597L0.722466 13.2565L0.71922 13.2516L0.702989 13.2435L0.686759 13.2354L0.683529 13.2306L0.678643 13.2273L0.673774 13.2241L0.670528 13.2192L0.667298 13.2144L0.662412 13.2111H0.654297V13.1787L0.670528 13.1819L0.686759 13.1868L0.759797 13.1949C0.80849 13.2003 0.941047 13.2084 1.15745 13.2192C1.37387 13.23 1.6038 13.23 1.84726 13.2192C2.09073 13.2084 2.33961 13.1841 2.59388 13.1463C2.84817 13.1085 3.14844 13.0436 3.49469 12.9518C3.84096 12.8599 4.15909 12.7508 4.44908 12.6244C4.73799 12.4969 4.94357 12.4018 5.06586 12.3391C5.18703 12.2775 5.37207 12.163 5.62093 11.9955L5.99424 11.7443L5.99749 11.7394L6.00236 11.7361L6.00724 11.7329L6.01047 11.728L6.01372 11.7232L6.01859 11.7199L6.02347 11.7167L6.0267 11.7118L6.04294 11.707L6.05917 11.7037L6.06241 11.6875L6.06728 11.6713L6.07217 11.6681L6.0754 11.6632L5.94555 11.6551C5.85899 11.6497 5.77513 11.6443 5.69397 11.6389C5.61282 11.6335 5.48568 11.6092 5.31255 11.566C5.13943 11.5227 4.95277 11.4579 4.75258 11.3715C4.55241 11.285 4.35764 11.1824 4.16827 11.0635C3.97892 10.9446 3.84203 10.8458 3.75763 10.7669C3.67432 10.6891 3.56611 10.5789 3.43302 10.4362C3.30101 10.2925 3.18631 10.145 3.08892 9.99374C2.99154 9.84247 2.89849 9.66794 2.80977 9.47021L2.67504 9.17522L2.66692 9.15091L2.65881 9.12659L2.65394 9.11038L2.65069 9.09418L2.67504 9.09742L2.69938 9.10228L2.87792 9.12659C2.99696 9.1428 3.18361 9.1482 3.43789 9.1428C3.69217 9.1374 3.868 9.12659 3.96539 9.11038C4.06277 9.09418 4.12229 9.08336 4.14393 9.07797L4.17639 9.06986L4.21697 9.06176L4.25754 9.05365L4.26079 9.04879L4.26566 9.04555L4.27054 9.04231L4.27377 9.03745L4.24131 9.02934L4.20885 9.02124L4.17639 9.01313L4.14393 9.00503L4.11147 8.99693C4.08983 8.99153 4.05196 8.98072 3.99785 8.96451C3.94375 8.9483 3.79767 8.88886 3.55962 8.78622C3.32158 8.68357 3.13221 8.58361 2.99154 8.48636C2.85052 8.38883 2.71605 8.28216 2.58901 8.16705C2.46241 8.05035 2.32338 7.90015 2.17188 7.71646C2.0204 7.53277 1.88515 7.31936 1.76611 7.07623C1.64709 6.8331 1.55782 6.60079 1.4983 6.37927C1.43902 6.15905 1.39991 5.93391 1.38145 5.70662L1.35222 5.36624L1.36845 5.36948L1.38468 5.37435L1.40092 5.38245L1.41715 5.39055L1.43338 5.39866L1.44961 5.40676L1.70119 5.52022C1.86892 5.59587 2.07721 5.6607 2.32607 5.71472C2.57496 5.76875 2.72373 5.79847 2.77242 5.80387L2.84546 5.81197H2.99154L2.98831 5.80711L2.98342 5.80387L2.97855 5.80063L2.97531 5.79576L2.97208 5.7909L2.96719 5.78766L2.96232 5.78442L2.95908 5.77956L2.94285 5.77145L2.92661 5.76335L2.92338 5.75849L2.9185 5.75524L2.91363 5.752L2.91038 5.74714L2.89415 5.73904L2.87792 5.73093L2.87469 5.72607C2.87145 5.7239 2.82491 5.68932 2.73509 5.62233C2.64636 5.55426 2.5533 5.4662 2.45592 5.35814C2.35853 5.25008 2.26115 5.13662 2.16376 5.01776C2.0662 4.89863 1.9793 4.77118 1.90407 4.63686C1.82834 4.5018 1.74826 4.32997 1.66386 4.12144C1.58054 3.91397 1.51724 3.70488 1.47395 3.49417C1.43068 3.28346 1.40634 3.07546 1.40092 2.87015C1.39551 2.66483 1.40092 2.48925 1.41715 2.34337C1.43338 2.1975 1.46584 2.03271 1.51453 1.84902C1.56322 1.66533 1.63357 1.47083 1.72553 1.26551L1.86349 0.957555L1.87161 0.933242L1.87973 0.90893L1.88461 0.905688L1.88784 0.900825L1.89109 0.895963L1.89596 0.892721L1.90084 0.895963L1.90407 0.900825L1.90732 0.905688L1.91219 0.90893L1.91707 0.912171L1.9203 0.917034L1.92355 0.921896L1.92842 0.925138L1.93653 0.941346L1.94465 0.957555L1.94953 0.960796L1.95276 0.965659L2.17188 1.20879C2.31796 1.37087 2.49109 1.55187 2.69127 1.75177C2.89146 1.95167 3.00236 2.0554 3.024 2.06297C3.04565 2.07161 3.07269 2.09645 3.10515 2.13753C3.13762 2.17751 3.24583 2.27314 3.42977 2.42442C3.61373 2.57569 3.85448 2.75129 4.15204 2.95119C4.44962 3.15109 4.77964 3.34829 5.14212 3.5428C5.50462 3.7373 5.89416 3.91288 6.31074 4.06957C6.72734 4.22626 7.0195 4.3289 7.18721 4.37753C7.35494 4.42615 7.64167 4.48828 8.04744 4.56393C8.45321 4.63957 8.75891 4.6882 8.96449 4.7098C9.17008 4.73141 9.31075 4.74384 9.38649 4.74708L9.5001 4.75032L9.49687 4.72601L9.49199 4.7017L9.45953 4.49909C9.43789 4.36403 9.42706 4.17492 9.42706 3.9318C9.42706 3.68867 9.44601 3.46446 9.48387 3.25915C9.52176 3.05384 9.57856 2.84583 9.6543 2.63512C9.73005 2.42442 9.80417 2.2553 9.87666 2.1278C9.95025 2.00138 10.0465 1.85712 10.1656 1.69504C10.2846 1.53295 10.4388 1.36547 10.6281 1.19258C10.8175 1.01968 11.0339 0.865702 11.2774 0.730637C11.5208 0.595572 11.7454 0.492908 11.951 0.422677C12.1566 0.352446 12.3297 0.306512 12.4703 0.284906C12.611 0.2633 12.6813 0.250868 12.6813 0.247626Z" fill="white"/>
</svg>
