<svg width="21" height="15" viewBox="0 0 21 15" fill="none" xmlns="http://www.w3.org/2000/svg">
<path d="M11.0926 14.5263L7.03037 14.4504C5.71512 14.4239 4.3966 14.4767 3.10714 14.2027C1.14558 13.7932 1.00661 11.7853 0.861203 10.101C0.66084 7.73316 0.738407 5.32235 1.11652 2.97427C1.32997 1.65676 2.17 0.870585 3.46908 0.785034C7.85443 0.474559 12.2689 0.511354 16.6446 0.656202C17.1067 0.66948 17.572 0.742056 18.0277 0.824667C20.277 1.22759 20.3318 3.50298 20.4776 5.41844C20.6231 7.35366 20.5617 9.29882 20.2837 11.2209C20.0608 12.8123 19.6341 14.1468 17.8338 14.2756C15.578 14.4441 13.374 14.5797 11.1119 14.5365C11.112 14.5263 11.099 14.5263 11.0926 14.5263ZM8.70439 10.4973C10.4043 9.49992 12.0718 8.51913 13.7619 7.52841C12.0589 6.531 10.3946 5.55021 8.70439 4.55949V10.4973Z" fill="white"/>
</svg>
